<svg xmlns:xlink="http://www.w3.org/1999/xlink" xmlns="http://www.w3.org/2000/svg" width="20" height="20" viewBox="0 0 20 20" fill="currentColor"><path fill-rule="evenodd" clip-rule="evenodd" d="M2 10C2 5.58172 5.58172 2 10 2C14.4183 2 18 5.58172 18 10C18 14.4183 14.4183 18 10 18C5.58172 18 2 14.4183 2 10ZM10 1C5.02944 1 1 5.02944 1 10C1 14.9706 5.02944 19 10 19C14.9706 19 19 14.9706 19 10C19 5.02944 14.9706 1 10 1ZM8.70826 5.88759C7.9771 5.40235 7 5.92659 7 6.80412V13.1951C7 14.0727 7.9771 14.5969 8.70826 14.1117L13.5232 10.9161C14.1789 10.481 14.1789 9.51823 13.5232 9.0831L8.70826 5.88759ZM8 6.80412C8 6.72434 8.08883 6.67669 8.1553 6.7208L12.9702 9.9163C13.0298 9.95586 13.0298 10.0434 12.9702 10.0829L8.1553 13.2784C8.08883 13.3226 8 13.2749 8 13.1951V6.80412Z" fill="#DADADA"></path></svg>